HIERARCHY
ROOT Hips
{
  OFFSET 227.498 94.3941 833.932
  CHANNELS 6 Xposition Yposition Zposition Zrotation Xrotation Yrotation
  JOINT Spine
  {
    OFFSET 0 8 0
    CHANNELS 6 Xposition Yposition Zposition Zrotation Xrotation Yrotation
    JOINT Spine1
    {
      OFFSET 0 8 -8.7365e-05
      CHANNELS 6 Xposition Yposition Zposition Zrotation Xrotation Yrotation
      JOINT Spine2
      {
        OFFSET -3.28525e-05 8 0
        CHANNELS 6 Xposition Yposition Zposition Zrotation Xrotation Yrotation
        JOINT Spine3
        {
          OFFSET 0 8 0
          CHANNELS 6 Xposition Yposition Zposition Zrotation Xrotation Yrotation
          JOINT Neck
          {
            OFFSET 2.96637e-05 17 1.14133e-05
            CHANNELS 6 Xposition Yposition Zposition Zrotation Xrotation Yrotation
            JOINT Head
            {
              OFFSET 1.6926e-05 10.8 6.15144e-05
              CHANNELS 6 Xposition Yposition Zposition Zrotation Xrotation Yrotation
              End Site
              {
                OFFSET 0 20.25 0
              }
            }
          }
          JOINT LeftShoulder
          {
            OFFSET 5.00004 17 0
            CHANNELS 6 Xposition Yposition Zposition Zrotation Xrotation Yrotation
            JOINT LeftShoulder2
            {
              OFFSET 6.45 0 0
              CHANNELS 6 Xposition Yposition Zposition Zrotation Xrotation Yrotation
              JOINT LeftArm
              {
                OFFSET 6.44999 0 0
                CHANNELS 6 Xposition Yposition Zposition Zrotation Xrotation Yrotation
                JOINT LeftForeArm
                {
                  OFFSET 0 -32.4 -1.99995
                  CHANNELS 6 Xposition Yposition Zposition Zrotation Xrotation Yrotation
                  JOINT LeftHand
                  {
                    OFFSET 1.77102e-05 -25.65 2.00001
                    CHANNELS 6 Xposition Yposition Zposition Zrotation Xrotation Yrotation
                    JOINT LeftHandThumb1
                    {
                      OFFSET -0.500024 -1.49994 2.65001
                      CHANNELS 6 Xposition Yposition Zposition Zrotation Xrotation Yrotation
                      JOINT LeftHandThumb2
                      {
                        OFFSET -2.06785e-05 -3.80004 3.69994
                        CHANNELS 6 Xposition Yposition Zposition Zrotation Xrotation Yrotation
                        JOINT LeftHandThumb3
                        {
                          OFFSET 0 -2.99999 2.69997
                          CHANNELS 6 Xposition Yposition Zposition Zrotation Xrotation Yrotation
                          End Site
                          {
                            OFFSET -1.3238e-05 -2.3 1.79993
                          }
                        }
                      }
                    }
                    JOINT LeftHandIndex
                    {
                      OFFSET 5.41067e-05 -1.89999 1.59999
                      CHANNELS 6 Xposition Yposition Zposition Zrotation Xrotation Yrotation
                      JOINT LeftHandIndex1
                      {
                        OFFSET 5.97834e-05 -8.29999 1.89999
                        CHANNELS 6 Xposition Yposition Zposition Zrotation Xrotation Yrotation
                        JOINT LeftHandIndex2
                        {
                          OFFSET 0 -4.49999 0
                          CHANNELS 6 Xposition Yposition Zposition Zrotation Xrotation Yrotation
                          JOINT LeftHandIndex3
                          {
                            OFFSET -1.31857e-05 -3.39992 2.17962e-05
                            CHANNELS 6 Xposition Yposition Zposition Zrotation Xrotation Yrotation
                            End Site
                            {
                              OFFSET 0 -2.59998 -1.93296e-05
                            }
                          }
                        }
                      }
                    }
                    JOINT LeftHandMiddle
                    {
                      OFFSET -0.249945 -2.20002 0.399995
                      CHANNELS 6 Xposition Yposition Zposition Zrotation Xrotation Yrotation
                      JOINT LeftHandMiddle1
                      {
                        OFFSET -4.96876e-05 -8.29993 1.00002
                        CHANNELS 6 Xposition Yposition Zposition Zrotation Xrotation Yrotation
                        JOINT LeftHandMiddle2
                        {
                          OFFSET 0 -4.65002 -3.35364e-05
                          CHANNELS 6 Xposition Yposition Zposition Zrotation Xrotation Yrotation
                          JOINT LeftHandMiddle3
                          {
                            OFFSET -2.26323e-05 -3.29998 0
                            CHANNELS 6 Xposition Yposition Zposition Zrotation Xrotation Yrotation
                            End Site
                            {
                              OFFSET 1.18134e-05 -2.69994 -1.14163e-05
                            }
                          }
                        }
                      }
                    }
                    JOINT LeftHandRing
                    {
                      OFFSET -0.500047 -2.14995 -0.800018
                      CHANNELS 6 Xposition Yposition Zposition Zrotation Xrotation Yrotation
                      JOINT LeftHandRing1
                      {
                        OFFSET 0.000112296 -7.74999 -0.199977
                        CHANNELS 6 Xposition Yposition Zposition Zrotation Xrotation Yrotation
                        JOINT LeftHandRing2
                        {
                          OFFSET 0 -3.79994 0
                          CHANNELS 6 Xposition Yposition Zposition Zrotation Xrotation Yrotation
                          JOINT LeftHandRing3
                          {
                            OFFSET -6.36062e-05 -3.3999 -1.72075e-05
                            CHANNELS 6 Xposition Yposition Zposition Zrotation Xrotation Yrotation
                            End Site
                            {
                              OFFSET 2.89801e-05 -2.6001 1.51336e-05
                            }
                          }
                        }
                      }
                    }
                    JOINT LeftHandPinky
                    {
                      OFFSET -0.750023 -1.75 -1.85001
                      CHANNELS 6 Xposition Yposition Zposition Zrotation Xrotation Yrotation
                      JOINT LeftHandPinky1
                      {
                        OFFSET 0 -7.14999 -0.999995
                        CHANNELS 6 Xposition Yposition Zposition Zrotation Xrotation Yrotation
                        JOINT LeftHandPinky2
                        {
                          OFFSET 0 -2.9999 1.17131e-05
                          CHANNELS 6 Xposition Yposition Zposition Zrotation Xrotation Yrotation
                          JOINT LeftHandPinky3
                          {
                            OFFSET 0 -2.34995 -1.71986e-05
                            CHANNELS 6 Xposition Yposition Zposition Zrotation Xrotation Yrotation
                            End Site
                            {
                              OFFSET -1.00739e-05 -2.1 2.08515e-05
                            }
                          }
                        }
                      }
                    }
                  }
                }
              }
            }
          }
          JOINT RightShoulder
          {
            OFFSET -4.99999 17 0
            CHANNELS 6 Xposition Yposition Zposition Zrotation Xrotation Yrotation
            JOINT RightShoulder2
            {
              OFFSET -6.45 0 0
              CHANNELS 6 Xposition Yposition Zposition Zrotation Xrotation Yrotation
              JOINT RightArm
              {
                OFFSET -6.45002 0 0
                CHANNELS 6 Xposition Yposition Zposition Zrotation Xrotation Yrotation
                JOINT RightForeArm
                {
                  OFFSET -2.25155e-05 -32.4 -2.00009
                  CHANNELS 6 Xposition Yposition Zposition Zrotation Xrotation Yrotation
                  JOINT RightHand
                  {
                    OFFSET -1.35524e-05 -25.65 1.99998
                    CHANNELS 6 Xposition Yposition Zposition Zrotation Xrotation Yrotation
                    JOINT RightHandThumb1
                    {
                      OFFSET 0.499996 -1.50001 2.65011
                      CHANNELS 6 Xposition Yposition Zposition Zrotation Xrotation Yrotation
                      JOINT RightHandThumb2
                      {
                        OFFSET 2.79402e-05 -3.80006 3.69998
                        CHANNELS 6 Xposition Yposition Zposition Zrotation Xrotation Yrotation
                        JOINT RightHandThumb3
                        {
                          OFFSET 0 -3 2.70001
                          CHANNELS 6 Xposition Yposition Zposition Zrotation Xrotation Yrotation
                          End Site
                          {
                            OFFSET -4.27458e-05 -2.3 1.8
                          }
                        }
                      }
                    }
                    JOINT RightHandIndex
                    {
                      OFFSET -2.48854e-05 -1.90001 1.60002
                      CHANNELS 6 Xposition Yposition Zposition Zrotation Xrotation Yrotation
                      JOINT RightHandIndex1
                      {
                        OFFSET 3.69243e-05 -8.30008 1.90001
                        CHANNELS 6 Xposition Yposition Zposition Zrotation Xrotation Yrotation
                        JOINT RightHandIndex2
                        {
                          OFFSET 0.000107707 -4.50009 6.77205e-05
                          CHANNELS 6 Xposition Yposition Zposition Zrotation Xrotation Yrotation
                          JOINT RightHandIndex3
                          {
                            OFFSET 5.61674e-05 -3.39998 0
                            CHANNELS 6 Xposition Yposition Zposition Zrotation Xrotation Yrotation
                            End Site
                            {
                              OFFSET -1.59474e-05 -2.6 0
                            }
                          }
                        }
                      }
                    }
                    JOINT RightHandMiddle
                    {
                      OFFSET 0.250011 -2.19997 0.400039
                      CHANNELS 6 Xposition Yposition Zposition Zrotation Xrotation Yrotation
                      JOINT RightHandMiddle1
                      {
                        OFFSET 1.48049e-05 -8.29994 0.999989
                        CHANNELS 6 Xposition Yposition Zposition Zrotation Xrotation Yrotation
                        JOINT RightHandMiddle2
                        {
                          OFFSET 0 -4.65 6.06482e-05
                          CHANNELS 6 Xposition Yposition Zposition Zrotation Xrotation Yrotation
                          JOINT RightHandMiddle3
                          {
                            OFFSET -4.85047e-05 -3.29998 -3.22661e-05
                            CHANNELS 6 Xposition Yposition Zposition Zrotation Xrotation Yrotation
                            End Site
                            {
                              OFFSET -3.60673e-05 -2.70006 5.8858e-05
                            }
                          }
                        }
                      }
                    }
                    JOINT RightHandRing
                    {
                      OFFSET 0.500015 -2.15009 -0.799975
                      CHANNELS 6 Xposition Yposition Zposition Zrotation Xrotation Yrotation
                      JOINT RightHandRing1
                      {
                        OFFSET 4.51661e-05 -7.75006 -0.20004
                        CHANNELS 6 Xposition Yposition Zposition Zrotation Xrotation Yrotation
                        JOINT RightHandRing2
                        {
                          OFFSET -5.8554e-05 -3.79998 5.91272e-05
                          CHANNELS 6 Xposition Yposition Zposition Zrotation Xrotation Yrotation
                          JOINT RightHandRing3
                          {
                            OFFSET -7.20753e-05 -3.4 1.20064e-05
                            CHANNELS 6 Xposition Yposition Zposition Zrotation Xrotation Yrotation
                            End Site
                            {
                              OFFSET 8.51388e-05 -2.59998 7.63981e-05
                            }
                          }
                        }
                      }
                    }
                    JOINT RightHandPinky
                    {
                      OFFSET 0.74998 -1.74998 -1.85002
                      CHANNELS 6 Xposition Yposition Zposition Zrotation Xrotation Yrotation
                      JOINT RightHandPinky1
                      {
                        OFFSET -5.10982e-05 -7.15002 -1.00009
                        CHANNELS 6 Xposition Yposition Zposition Zrotation Xrotation Yrotation
                        JOINT RightHandPinky2
                        {
                          OFFSET -7.27106e-05 -2.99999 6.9397e-05
                          CHANNELS 6 Xposition Yposition Zposition Zrotation Xrotation Yrotation
                          JOINT RightHandPinky3
                          {
                            OFFSET -3.58996e-05 -2.34999 -4.56831e-05
                            CHANNELS 6 Xposition Yposition Zposition Zrotation Xrotation Yrotation
                            End Site
                            {
                              OFFSET -5.55384e-05 -2.09999 1.65174e-05
                            }
                          }
                        }
                      }
                    }
                  }
                }
              }
            }
          }
        }
      }
    }
  }
  JOINT LeftUpLeg
  {
    OFFSET 7.99999 0 0
    CHANNELS 6 Xposition Yposition Zposition Zrotation Xrotation Yrotation
    JOINT LeftLeg
    {
      OFFSET 0 -45 -1.00001
      CHANNELS 6 Xposition Yposition Zposition Zrotation Xrotation Yrotation
      JOINT LeftFoot
      {
        OFFSET -2.5537e-05 -41 -2.00001
        CHANNELS 6 Xposition Yposition Zposition Zrotation Xrotation Yrotation
        JOINT LeftToeBase
        {
          OFFSET 3.92624e-05 -7.5 12.5
          CHANNELS 6 Xposition Yposition Zposition Zrotation Xrotation Yrotation
          JOINT LeftFootToe
          {
            OFFSET 0 0 4
            CHANNELS 6 Xposition Yposition Zposition Zrotation Xrotation Yrotation
            End Site
            {
              OFFSET 0 0 0
            }
          }
        }
      }
    }
  }
  JOINT RightUpLeg
  {
    OFFSET -7.99999 0 0
    CHANNELS 6 Xposition Yposition Zposition Zrotation Xrotation Yrotation
    JOINT RightLeg
    {
      OFFSET -1.27799e-05 -45 -0.999962
      CHANNELS 6 Xposition Yposition Zposition Zrotation Xrotation Yrotation
      JOINT RightFoot
      {
        OFFSET 0 -41 -2.00002
        CHANNELS 6 Xposition Yposition Zposition Zrotation Xrotation Yrotation
        JOINT RightToeBase
        {
          OFFSET 3.14418e-05 -7.5 12.5
          CHANNELS 6 Xposition Yposition Zposition Zrotation Xrotation Yrotation
          JOINT RightFootToe
          {
            OFFSET 0 0 4
            CHANNELS 6 Xposition Yposition Zposition Zrotation Xrotation Yrotation
            End Site
            {
              OFFSET 0 0 0
            }
          }
        }
      }
    }
  }
}
MOTION
Frames:	3
Frame Time:	0.0111111
244.654 92.0617 826.716 -0.404261 -0.279002 61.2286 -1.13687e-13 8 0 -1.9911 5.70007 7.4208 -1.13687e-13 8 0 0.139126 -0.340512 4.50499 1.13687e-13 8 -5.68434e-14 0.0659063 -0.158543 2.25316 0 8 0 0.0654939 -0.158517 2.25218 0 17 0 -1.12311 5.53669 10.2929 1.13687e-13 10.8 0 -1.22069 -1.6973 23.9351 5 17 0 -2.13216 9.48975 -31.1236 6.45 2.84217e-14 -2.27374e-13 -0.173414 0.788644 2.60597 6.45 0 -1.13687e-13 33.4044 -20.4513 24.3519 0 -32.4 -2 7.44712 -37.61 31.4082 -1.13687e-13 -25.65 2 13.3467 15.5328 24.6191 -0.5 -1.5 2.65 -17.8265 -2.30779 -7.95413 1.13687e-13 -3.8 3.7 -0.678672 7.47542 0.0100847 0 -3 2.7 -0.0556395 11.29 0.0647727 -1.13687e-13 -1.9 1.6 5.8872e-06 -3.95908e-06 -2.68352e-06 0 -8.3 1.9 -0.0191636 -1.17085 0.00476325 -1.13687e-13 -4.5 0 -5.28292e-05 0.062908 0.000271651 -1.13687e-13 -3.4 0 -9.88936e-06 0.0616689 0.000246514 -0.25 -2.2 0.4 5.8872e-06 -3.95908e-06 -2.68352e-06 0 -8.3 1 -9.26746 8.68144 1.27827 0 -4.65 5.68434e-14 -18.4183 -0.00192095 0.00205733 0 -3.3 0 -14.8441 0.00010689 0.00112605 -0.5 -2.15 -0.8 5.8872e-06 -3.95908e-06 -2.68352e-06 -1.13687e-13 -7.75 -0.2 -33.5433 8.848 4.40577 0 -3.8 0 -34.7986 0.0127907 0.0179691 5.68434e-14 -3.4 -5.68434e-14 -24.9584 -0.00235795 0.00124815 -0.75 -1.75 -1.85 5.8872e-06 -3.95908e-06 -2.68352e-06 0 -7.15 -1 -55.0485 1.94872 4.72314 0 -3 0 -42.5692 0.00759338 0.00357388 4.26326e-14 -2.35 5.68434e-14 -29.6714 0.000602239 0.00297016 -5 17 0 5.10886 6.29661 -27.3883 -6.45 0 0 -0.587663 -0.769753 0.33125 -6.45 0 1.13687e-13 -26.7647 10.1615 1.81423 0 -32.4 -2 50.0443 -48.4535 60.0708 0 -25.65 2 -22.3594 -9.66002 24.9459 0.5 -1.5 2.65 40.6645 -12.9873 -14.1283 0 -3.8 3.7 0.440448 46.7298 -0.0584867 0 -3 2.7 0.0334812 28.7477 -0.0279154 -1.13687e-13 -1.9 1.6 7.3033e-06 -3.62597e-06 3.38572e-06 0 -8.3 1.9 25.3587 3.78124 -1.07694 1.13687e-13 -4.5 -2.84217e-14 30.3346 0.00274781 -0.0046172 1.13687e-13 -3.4 2.84217e-14 22.2949 -0.0179702 0.0620874 0.25 -2.2 0.4 7.3033e-06 -3.62597e-06 3.38572e-06 1.13687e-13 -8.3 1 36.8696 0.982041 -1.37546 0 -4.65 0 56.0639 -0.0285145 -0.0114499 0 -3.3 0 38.8923 -0.00445942 -0.00442762 0.5 -2.15 -0.8 7.3033e-06 -3.62597e-06 3.38572e-06 0 -7.75 -0.2 50.5387 -1.30964 -2.03398 1.13687e-13 -3.8 2.84217e-14 54.6227 0.0424091 0.00823515 0 -3.4 2.84217e-14 37.7999 0.019075 -0.0922264 0.75 -1.75 -1.85 7.3033e-06 -3.62597e-06 3.38572e-06 0 -7.15 -1 57.8341 -5.76522 -1.10476 0 -3 -5.68434e-14 45.6824 0.0169188 0.0620901 0 -2.35 2.84217e-14 31.6354 0.0342521 0.00605863 8 0 0 1.09144 -15.098 7.32811 0 -45 -1 -0.174835 18.7419 1.59691 1.13687e-13 -41 -2 1.29555 -3.93511 -2.51516 -1.13687e-13 -7.5 12.5 -1.84389e-07 -1.91837e-05 2.89354e-10 1.13687e-13 0 4 -1.28083 -7.66313 0.107049 -8 1.42109e-14 0 -8.59128 1.04307 -2.69865 0 -45 -1 0.0445606 7.32658 -2.13424 1.13687e-13 -41 -2 9.62136 -5.90615 -7.0011 0 -7.5 12.5 -0.000178566 -1.81972 0.000202478 -1.13687e-13 0 4 -8.45896 8.14207 0.0263072 
244.631 92.0464 826.771 -0.412987 -0.297457 61.3359 0 8 0 -1.91272 5.73554 7.35503 0 8 0 0.128805 -0.33613 4.49437 -1.13687e-13 8 0 0.0608992 -0.158544 2.24796 0 8 0 0.0606538 -0.158377 2.24609 0 17 0 -1.07546 5.51265 10.1662 0 10.8 2.84217e-14 -1.20715 -1.74094 23.6408 5 17 0 -2.06466 9.45184 -31.1731 6.45 -2.84217e-14 1.13687e-13 -0.171405 0.771918 2.611 6.45 -2.84217e-14 0 33.4165 -20.0453 24.6338 -1.13687e-13 -32.4 -2 7.49136 -37.6821 31.4289 1.13687e-13 -25.65 2 12.9731 15.5744 24.7555 -0.5 -1.5 2.65 -17.7233 -2.40794 -7.94892 0 -3.8 3.7 -0.675523 7.36359 0.0100821 0 -3 2.7 -0.0558664 11.4867 0.0648175 0 -1.9 1.6 5.8872e-06 -3.95908e-06 -2.68352e-06 1.13687e-13 -8.3 1.9 -0.0282586 -1.39205 0.00448996 1.13687e-13 -4.5 -2.84217e-14 -5.28292e-05 0.062908 0.000271651 0 -3.4 -2.84217e-14 -9.88936e-06 0.0616689 0.000246514 -0.25 -2.2 0.4 5.8872e-06 -3.95908e-06 -2.68352e-06 0 -8.3 1 -9.3932 8.24206 1.25489 0 -4.65 2.84217e-14 -18.1968 -0.00225167 0.00564136 1.13687e-13 -3.3 5.68434e-14 -14.6923 -0.00115056 0.00459732 -0.5 -2.15 -0.8 5.8872e-06 -3.95908e-06 -2.68352e-06 1.13687e-13 -7.75 -0.2 -33.6386 8.47365 4.3097 0 -3.8 0 -34.5857 0.0123476 0.0175777 -5.68434e-14 -3.4 0 -24.8314 -0.00235795 0.00124815 -0.75 -1.75 -1.85 5.8872e-06 -3.95908e-06 -2.68352e-06 0 -7.15 -1 -54.7666 1.85632 4.63062 0 -3 2.84217e-14 -42.0443 0.00760731 0.00390343 2.84217e-14 -2.35 -2.84217e-14 -29.3445 0.0010727 0.00306739 -5 17 0 5.23646 6.27331 -27.4198 -6.45 0 1.13687e-13 -0.59502 -0.752534 0.304611 -6.45 0 1.13687e-13 -26.93 10.1308 1.87315 0 -32.4 -2 50.2174 -48.4425 60.1774 0 -25.65 2 -22.3037 -9.6499 24.9273 0.5 -1.5 2.65 40.49 -12.8758 -14.1482 1.13687e-13 -3.8 3.7 0.440448 46.7298 -0.0584867 -1.13687e-13 -3 2.7 0.0334812 28.7477 -0.0279154 -1.13687e-13 -1.9 1.6 7.3033e-06 -3.62597e-06 3.38572e-06 1.13687e-13 -8.3 1.9 25.381 3.77216 -1.07693 0 -4.5 -5.68434e-14 30.3204 0.00274781 -0.0046172 1.13687e-13 -3.4 5.68434e-14 22.2863 -0.0179702 0.0620874 0.25 -2.2 0.4 7.3033e-06 -3.62597e-06 3.38572e-06 1.13687e-13 -8.3 1 36.8732 0.965083 -1.36997 0 -4.65 -2.84217e-14 56.0629 -0.0285145 -0.0111126 5.68434e-14 -3.3 5.68434e-14 38.8922 -0.00445942 -0.00442762 0.5 -2.15 -0.8 7.3033e-06 -3.62597e-06 3.38572e-06 -1.13687e-13 -7.75 -0.2 50.5535 -1.32993 -2.0257 0 -3.8 0 54.5765 0.0424091 0.00823515 0 -3.4 2.84217e-14 37.7654 0.019075 -0.0922264 0.75 -1.75 -1.85 7.3033e-06 -3.62597e-06 3.38572e-06 0 -7.15 -1 57.859 -5.77707 -1.10091 0 -3 0 45.6747 0.0169188 0.0620901 5.68434e-14 -2.35 -2.84217e-14 31.6304 0.0342521 0.00605863 8 -1.42109e-14 -1.13687e-13 1.17221 -15.1557 7.49359 0 -45 -1 -0.177464 18.8881 1.59313 -1.13687e-13 -41 -2 1.28397 -4.01903 -2.27688 -1.13687e-13 -7.5 12.5 -1.84389e-07 -1.91837e-05 2.89351e-10 0 3.46945e-18 4 -1.2646 -7.74012 0.0485359 -8 0 0 -8.529 1.13822 -2.73321 0 -45 -1 0.042804 7.21623 -2.1337 -1.13687e-13 -41 -2 9.5736 -5.98654 -7.00524 1.7053e-13 -7.5 12.5 -0.000178906 -1.72382 0.000202467 1.13687e-13 -2.77556e-17 4 -8.44231 8.15736 0.0326619 
244.591 92.0311 826.835 -0.432439 -0.334655 61.4646 0 8 1.13687e-13 -1.82021 5.78032 7.27745 1.13687e-13 8 0 0.119801 -0.331897 4.47834 1.13687e-13 8 0 0.0565467 -0.158545 2.23997 0 8 0 0.0562157 -0.158225 2.23809 1.13687e-13 17 0 -1.02987 5.48096 10.0283 0 10.8 0 -1.18898 -1.79197 23.3205 5 17 0 -1.98881 9.41157 -31.2276 6.45 0 0 -0.169395 0.749528 2.62233 6.45 0 1.13687e-13 33.4512 -19.6731 24.98 1.13687e-13 -32.4 -2 7.53216 -37.7045 31.3973 -1.13687e-13 -25.65 2 12.5202 15.6584 24.9433 -0.5 -1.5 2.65 -17.5861 -2.56289 -7.94172 -1.13687e-13 -3.8 3.7 -0.673553 7.21616 0.0100788 1.13687e-13 -3 2.7 -0.0561986 11.7742 0.0648845 0 -1.9 1.6 5.8872e-06 -3.95908e-06 -2.68352e-06 0 -8.3 1.9 -0.0373867 -1.63671 0.00367035 0 -4.5 0 -5.28292e-05 0.062908 0.000271651 -1.13687e-13 -3.4 -8.52651e-14 -9.88936e-06 0.0616689 0.000246514 -0.25 -2.2 0.4 5.8872e-06 -3.95908e-06 -2.68352e-06 1.13687e-13 -8.3 1 -9.62898 7.62498 1.23099 1.13687e-13 -4.65 2.84217e-14 -17.8368 -0.00210025 0.0127836 0 -3.3 0 -14.4545 -0.00243439 0.00893454 -0.5 -2.15 -0.8 5.8872e-06 -3.95908e-06 -2.68352e-06 0 -7.75 -0.2 -33.8682 7.97319 4.19982 0 -3.8 0 -34.3027 0.0107491 0.0160336 5.68434e-14 -3.4 0 -24.6627 -0.00235795 0.00124815 -0.75 -1.75 -1.85 5.8872e-06 -3.95908e-06 -2.68352e-06 0 -7.15 -1 -54.3893 1.77203 4.52695 5.68434e-14 -3 0 -41.7448 0.00814328 0.00758643 2.84217e-14 -2.35 2.84217e-14 -29.1588 0.00301851 0.00481303 -5 17 0 5.3679 6.25175 -27.4449 -6.45 0 0 -0.606868 -0.73453 0.278636 -6.45 5.68434e-14 0 -27.0795 10.0659 1.93801 1.13687e-13 -32.4 -2 50.3908 -48.4358 60.2702 -1.13687e-13 -25.65 2 -22.2288 -9.63195 24.9169 0.5 -1.5 2.65 40.2989 -12.7455 -14.1783 0 -3.8 3.7 0.440448 46.7298 -0.0584867 0 -3 2.7 0.0334812 28.7477 -0.0279154 -1.13687e-13 -1.9 1.6 7.3033e-06 -3.62597e-06 3.38572e-06 1.13687e-13 -8.3 1.9 25.3892 3.76443 -1.07692 0 -4.5 0 30.2909 0.00274781 -0.0046172 -1.13687e-13 -3.4 0 22.2686 -0.0179702 0.0620874 0.25 -2.2 0.4 7.3033e-06 -3.62597e-06 3.38572e-06 1.13687e-13 -8.3 1 36.8619 0.94952 -1.36394 -1.13687e-13 -4.65 2.84217e-14 56.0667 -0.0285145 -0.00975555 0 -3.3 -2.84217e-14 38.895 -0.00445942 -0.00442762 0.5 -2.15 -0.8 7.3033e-06 -3.62597e-06 3.38572e-06 1.13687e-13 -7.75 -0.2 50.5598 -1.35168 -2.01567 0 -3.8 0 54.5239 0.0424091 0.00823515 0 -3.4 2.84217e-14 37.7261 0.019075 -0.0922264 0.75 -1.75 -1.85 7.3033e-06 -3.62597e-06 3.38572e-06 0 -7.15 -1 57.8777 -5.78969 -1.09743 1.13687e-13 -3 0 45.6592 0.0169188 0.0620901 0 -2.35 -2.84217e-14 31.6203 0.0342521 0.00605863 8 0 1.13687e-13 1.28753 -15.2291 7.67665 1.13687e-13 -45 -1 -0.181267 19.0498 1.59175 0 -41 -2 1.26644 -4.10219 -2.03361 0 -7.5 12.5 -1.84389e-07 -1.91837e-05 2.89351e-10 0 -8.67362e-19 4 -1.24171 -7.82725 0.0254172 -8 0 0 -8.42836 1.24572 -2.72675 0 -45 -1 0.0401271 7.07726 -2.13704 0 -41 -2 9.50995 -6.06465 -7.05823 -5.68434e-14 -7.5 12.5 -0.000179268 -1.62115 0.000202456 -5.68434e-14 0 4 -8.41198 8.18123 0.0318556 
